<?xml version="1.0" encoding="UTF-8" standalone="no"?>
<!DOCTYPE svg PUBLIC "-//W3C//DTD SVG 1.1//EN" "http://www.w3.org/Graphics/SVG/1.1/DTD/svg11.dtd">
<svg width="100%" height="100%" viewBox="0 0 577 573" version="1.1" xmlns="http://www.w3.org/2000/svg" xmlns:xlink="http://www.w3.org/1999/xlink" xml:space="preserve" xmlns:serif="http://www.serif.com/" style="fill-rule:evenodd;clip-rule:evenodd;stroke-linejoin:round;stroke-miterlimit:2;">
    <g>
        <path d="M285.863,568.043C256.844,552.961 218.281,527.32 195.344,507.859C188.894,502.391 188.683,502.277 187.383,503.66C186.648,504.441 179.703,512.332 171.945,521.203C154.555,541.086 149.09,547.094 149.09,546.32C149.09,545.992 155.25,533.641 162.777,518.867L176.465,492.012L164.055,479.418C157.23,472.496 149.121,464.008 146.039,460.566L140.43,454.305L122.359,474.816C112.422,486.098 101.66,498.453 98.445,502.27C95.23,506.09 92.449,509.062 92.262,508.875C91.945,508.559 101.301,490.078 112.215,469.453C114.727,464.707 119.461,455.766 122.734,449.578L128.688,438.328L126.219,434.953C115.508,420.302 99.859,392.297 91.898,373.539L89.867,368.75L87.043,369.168C85.488,369.398 70.883,371.805 54.59,374.523C38.297,377.238 24.18,379.586 23.223,379.738C19.812,380.281 23.012,378.617 43.742,369.055C73.574,355.297 82.355,351.188 82.711,350.832C82.883,350.66 82.184,347.832 81.16,344.547C73.832,321.109 68.633,296.895 66.219,274.969C65.684,270.094 65.125,266.004 64.98,265.875C64.836,265.746 50.129,263 32.305,259.773C14.477,256.543 0.008,253.785 0.148,253.645C0.289,253.504 7.953,252.566 17.184,251.555C26.414,250.547 40.641,248.977 48.801,248.066L63.633,246.41L63.051,220.117C62.727,205.66 62.488,167.164 62.516,134.578C62.562,77.723 63.098,60.895 64.914,59.078C65.309,58.684 68.344,58.73 72.277,59.188C75.957,59.617 85.379,60.18 93.215,60.441C134.723,61.809 182.906,52.703 224.84,35.566C242.914,28.184 266.758,15.293 281.938,4.695C285.086,2.5 287.91,0.703 288.211,0.703C288.512,0.703 292.688,3.176 297.488,6.203C316.609,18.25 334.082,27.355 354.793,36.066C365.047,40.383 386.883,47.754 396.59,50.184C400.098,51.059 403.508,51.934 404.168,52.129C404.984,52.371 408.102,49.422 413.914,42.906C418.617,37.637 426.191,29.277 430.754,24.328C435.316,19.379 439.957,14.32 441.07,13.086C442.18,11.852 443.09,11.082 443.09,11.375C443.09,11.668 438.027,21.5 431.84,33.23C425.652,44.957 420.59,54.922 420.59,55.375C420.59,55.832 420.887,56.203 421.246,56.203C421.605,56.203 428.605,57.098 436.809,58.195C450.016,59.961 454.281,60.195 474.215,60.238C488.402,60.27 499.324,59.938 503.773,59.34C507.656,58.82 511.102,58.66 511.43,58.992C513.355,60.918 513.734,79.941 513.48,161.547L513.215,245.914L515.09,246.301C516.121,246.512 529.453,248.043 544.715,249.707C559.977,251.371 573.648,252.941 575.09,253.199C578.012,253.715 578.164,253.684 535.34,261.371C522.348,263.703 511.629,265.691 511.52,265.789C511.414,265.887 510.816,270.324 510.199,275.648C507.555,298.328 503.516,317.848 496.961,339.602C494.93,346.352 493.367,351.945 493.488,352.027C493.613,352.113 495.742,353.051 498.215,354.113C507.535,358.117 555.172,379.531 555.508,379.867C555.699,380.062 554.867,380.043 553.66,379.832C552.453,379.617 537.629,377.254 520.715,374.578C503.805,371.902 489.246,369.594 488.367,369.453C486.969,369.227 486.242,370.441 482.449,379.387C474.652,397.762 466.738,412.668 454.945,431.168C449.504,439.703 449.065,440.676 449.859,442.414C450.742,444.352 466.832,474.836 478.703,497.066C482.301,503.797 485.109,509.434 484.953,509.59C484.797,509.75 483.328,508.258 481.691,506.277C472.844,495.574 438.656,456.441 437.906,456.164C437.664,456.074 436.285,457.578 434.84,459.504C424.949,472.695 401.461,497.133 385.633,510.703C361.293,531.57 332.422,551.562 304.613,566.805C299.195,569.773 294.562,572.203 294.316,572.203C294.07,572.203 290.266,570.328 285.863,568.043ZM297.805,558.594C299.543,557.707 305.52,554.273 311.09,550.961C381.094,509.328 430.93,458.504 462.719,396.328C475.504,371.312 487.594,338.043 493.32,312.105C496.883,295.965 501.59,262.312 501.59,252.977C501.59,251.258 501.512,251.242 490.902,251.035L480.215,250.828L480.293,247.453C480.336,245.598 480.645,226.312 480.977,204.605L481.582,165.129L478.047,163.566C471.035,160.465 458.32,156.828 451.34,155.934C446.492,155.309 440.026,155.184 431.09,155.547C423.871,155.836 418.137,155.93 418.34,155.746C418.875,155.277 443.75,141.367 451.195,137.375C454.621,135.539 457.285,133.898 457.121,133.73C456.953,133.562 453.305,134.254 449.016,135.262C444.727,136.27 431.43,139.316 419.465,142.031C407.504,144.746 390.461,148.617 381.59,150.629L365.465,154.293L368.09,152.086C372.742,148.176 424.371,109.395 425.5,108.961C426.102,108.73 426.59,108.258 426.59,107.906C426.59,107.559 423.637,108.641 420.027,110.316C416.418,111.988 407.898,115.82 401.09,118.828C394.285,121.836 385.039,126.02 380.547,128.125C376.059,130.23 372.102,131.953 371.762,131.953C371.422,131.953 371.766,130.855 372.531,129.516C374.418,126.203 396.305,86.945 408.594,64.828C414.094,54.926 419.102,45.984 419.727,44.953C420.742,43.266 420.742,43.191 419.703,44.203C415.664,48.148 387.348,82.672 358.805,118.453C347.785,132.27 337.629,144.926 336.242,146.578L333.723,149.578L335.426,143.578C336.363,140.277 339.523,129.477 342.449,119.578C347.918,101.059 349.07,96.805 348.434,97.453C348.234,97.66 343.906,103.902 338.82,111.328C333.734,118.754 328.914,125.672 328.109,126.703L326.645,128.578L327.121,124.078C328.418,111.906 330.559,87.422 330.344,87.207C330.211,87.074 325.918,98.297 320.805,112.145C313.66,131.496 311.395,136.902 311.016,135.496C310.75,134.492 309.938,128.133 309.215,121.371C308.492,114.609 307.605,108.758 307.246,108.363C306.855,107.941 306.59,108.293 306.59,109.246C306.59,110.121 305.277,116.348 303.672,123.082C302.066,129.816 299.984,138.703 299.043,142.828C297.438,149.859 297.293,150.164 296.715,147.703C294.91,139.969 293.754,120.668 292.594,78.902C291.895,53.641 291.531,32.762 291.793,32.5C292.055,32.238 296.082,34.281 300.742,37.039C320.559,48.77 350.633,62.281 372.215,69.148C388.031,74.18 385.855,74.371 392.117,67.426C395.102,64.113 397.414,61.312 397.254,61.199C397.094,61.086 395.109,60.539 392.84,59.984C373.82,55.328 347.871,45.375 325.34,34.086C314.457,28.637 292.723,16.105 289.992,13.707C288.91,12.754 287.809,13.262 280.242,18.188C257.102,33.258 237.777,42.609 208.715,52.805C171.531,65.848 131.832,72.078 93.215,70.934C84.555,70.676 76.75,70.266 75.879,70.023C74.594,69.664 74.191,69.988 73.777,71.703C72.965,75.074 72.465,162.34 73.121,186.328L73.715,208.078L77.09,207.934C78.945,207.855 87.215,207.273 95.465,206.645C113.344,205.281 127.254,204.562 126.215,205.055C125.805,205.254 119.559,206.77 112.34,208.426C105.121,210.082 98.402,211.629 97.414,211.863L95.609,212.289L96.062,233.059C96.309,244.48 97.055,259.059 97.715,265.453C99.828,285.855 104.438,310.863 108.641,324.695L110.207,329.852L108.68,335.246C107.84,338.211 106.996,340.797 106.805,340.988C106.613,341.18 105.449,338.188 104.215,334.332C94.422,303.68 89.754,273.203 88.629,232.641C88.273,219.754 87.844,213.703 87.285,213.703C85.914,213.707 73.891,215.902 73.59,216.207C73.047,216.75 74.863,253.895 76,265.453C80.477,311.031 91.461,349.836 110.785,388.34C122.695,412.078 140.262,437.625 159.277,458.871C169.645,470.453 181.059,481.715 181.906,481.191C182.219,481 183.77,478.184 185.355,474.93L188.234,469.02L181.301,461.953C171.375,451.84 160.203,438.93 152.742,428.953C146.523,420.641 134.84,402.996 134.84,401.922C134.84,401.633 137.625,401.164 141.027,400.879C144.43,400.594 149.41,400.051 152.09,399.672C154.773,399.293 166.246,397.789 177.59,396.328C202.516,393.125 207.125,392.125 214.152,388.398L219.59,385.516L219.59,387.359C219.59,388.77 219.984,389.203 221.277,389.203C222.207,389.203 233.723,387.344 246.871,385.078C260.02,382.809 271.242,380.953 271.809,380.953C272.41,380.953 272.84,381.738 272.84,382.828C272.84,383.859 272.984,384.703 273.156,384.703C273.328,384.703 277.465,383.828 282.344,382.762C287.223,381.691 296.445,379.902 302.84,378.781L314.465,376.738L314.691,372.473C314.812,370.125 315.09,368.203 315.305,368.203C315.52,368.203 317.168,369.215 318.969,370.457C324.25,374.086 330.141,375.223 341.09,374.719C351.355,374.242 359.848,372.41 365.938,369.348C370.473,367.07 370.34,367.082 370.34,368.953C370.34,370.008 370.84,370.453 372.027,370.453C374.359,370.453 404.766,365.336 405.637,364.801C406.023,364.559 406.34,363.312 406.34,362.027L406.34,359.691L408.027,361.273C410.637,363.715 413.77,364.598 417.949,364.07C420.02,363.805 431.289,362.25 442.992,360.609C454.691,358.973 464.414,357.777 464.598,357.957C465.32,358.684 456.676,379.082 450.565,391.078C428.559,434.27 399.004,469.141 354.215,504.766C337.434,518.113 302.102,541.105 301.434,539.109C300.5,536.309 305.859,412.25 307.133,407.203C307.738,404.816 307.883,405.379 314.555,435.719C317.355,448.465 319.766,458.781 319.906,458.641C320.043,458.5 320.805,450.664 321.59,441.23C324.285,408.906 324.883,402.703 325.297,402.719C325.527,402.73 328.246,410.363 331.34,419.685L336.965,436.625L337.445,432.227C337.711,429.809 337.973,421.755 338.023,414.328L338.121,400.828L342.195,407.203C344.434,410.707 346.465,413.5 346.703,413.402C346.941,413.305 348.316,410.965 349.758,408.195C358.938,390.582 375.285,380.203 393.844,380.203C402.613,380.203 407.398,381.535 421.34,387.863C427.734,390.766 434.441,393.781 436.25,394.562L439.531,395.98L438.215,393.906C437.488,392.762 433.336,386.848 428.984,380.766L421.074,369.703L418.02,369.703C416.34,369.703 403.672,371.594 389.867,373.902C374.293,376.512 364.672,377.816 364.512,377.344C364.355,376.867 362.488,377.09 359.512,377.941C351.566,380.211 341.754,381.219 332.422,380.719C325.719,380.359 323.84,380.469 323.84,381.215C323.84,381.879 320.797,382.566 313.902,383.461C308.438,384.168 296.539,386.27 287.465,388.129C263.664,393.016 265.961,392.762 266.379,390.445C266.578,389.363 266.508,388.348 266.227,388.188C265.945,388.027 262.172,388.512 257.84,389.266C215.691,396.59 210.535,397.453 208.828,397.453C207.746,397.453 203.266,400.922 196.105,407.309C190.023,412.727 185.176,417.289 185.328,417.441C185.594,417.707 196.199,414.996 218.289,409.02C223.969,407.484 228.793,406.402 229.008,406.621C229.227,406.84 225.223,414.566 220.113,423.797C213.203,436.273 176.215,504.582 173.258,510.328C172.543,511.715 174.305,509.707 179.516,503.203C182.328,499.695 188.543,492.102 193.328,486.328C202.57,475.18 219.484,454.34 241.676,426.75C249.121,417.496 255.305,410.41 255.418,411C255.535,411.594 253.922,421.66 251.844,433.375C249.762,445.086 248.152,454.758 248.262,454.863C248.375,454.973 253.336,445.477 259.289,433.77C265.246,422.06 270.277,412.641 270.473,412.836C270.672,413.031 271.039,420.535 271.293,429.512L271.754,445.828L273.707,441.703C274.777,439.434 278.008,432.348 280.879,425.953C283.75,419.56 287.184,412.301 288.504,409.828L290.906,405.328L290.527,473.109C290.32,510.391 290.02,541.023 289.855,541.188C289.691,541.352 285.039,538.836 279.512,535.594C254.109,520.707 235.391,507.852 214.293,490.812L204.871,483.203L200.117,488.777C197.508,491.844 195.691,494.57 196.086,494.84C196.48,495.109 201,498.73 206.133,502.887C226.559,519.434 246.422,533.105 271.715,548.027C281.906,554.035 293.172,560.172 294.059,560.191C294.383,560.195 296.07,559.477 297.805,558.594ZM131.996,386.281C126.605,384.422 123.047,381.355 120.102,376.039C115.488,367.715 114.355,358.305 116.488,346.07C119.223,330.398 127.824,317.895 139.984,311.926C151.094,306.469 162.289,307.27 169.02,314C170.848,315.828 172.34,317.688 172.34,318.133C172.34,319.27 159.66,335.953 158.797,335.953C158.41,335.953 158.09,335.414 158.09,334.754C158.09,332.664 153.223,328.453 150.812,328.453C145.453,328.453 139.195,334.961 136.566,343.273C135.152,347.746 134.992,358.914 136.309,361.457C139.156,366.957 143.141,368.496 148.453,366.148C151.465,364.812 155.457,361.094 157.184,358.012C157.816,356.883 158.684,357.293 164.371,361.426C167.93,364.012 170.84,366.375 170.84,366.676C170.84,367.875 164.918,376.242 162.242,378.824C154.289,386.496 141.645,389.613 131.996,386.281ZM188.336,380.918C184.316,380.125 181.477,378.625 178.941,375.957C174.387,371.16 173.383,364.688 174.598,347.953C175.059,341.559 175.883,329.98 176.43,322.223C176.977,314.469 177.551,307.992 177.707,307.836C178.27,307.273 195.746,305.109 196.188,305.547C196.434,305.797 195.883,315.859 194.965,327.914C193.238,350.566 192.965,358.98 193.914,360.402C194.219,360.855 195.242,361.637 196.188,362.137C197.609,362.883 198.395,362.805 200.668,361.684C206.137,358.992 206.27,358.367 209.023,322.598C209.797,312.57 210.578,304.215 210.766,304.027C211.293,303.5 228.723,301.336 229.137,301.746C229.824,302.438 225.484,354.043 224.383,358.277C220.953,371.441 213.184,378.648 200.031,380.871C194.5,381.805 192.84,381.809 188.336,380.918ZM230.855,374.766C230.871,372.582 233.445,337.141 235.07,316.699L236.336,300.824L238.648,300.41C243.492,299.543 254.902,298.262 255.191,298.555C255.355,298.719 254.535,311.168 253.363,326.215C252.195,341.266 251.383,353.727 251.559,353.91C251.734,354.09 256.809,353.32 262.832,352.195C268.859,351.07 273.953,350.316 274.156,350.516C274.562,350.926 273.066,368.977 272.582,369.461C272.309,369.734 232.828,376.434 231.402,376.445C231.094,376.449 230.848,375.691 230.855,374.766ZM282.602,369.566C282.605,368.609 283.117,362.09 283.742,355.078C285.965,330.082 287.113,314.727 286.789,314.402C286.609,314.219 282.707,314.648 278.121,315.355C273.531,316.062 269.578,316.441 269.332,316.195C268.691,315.555 270.316,297.66 271.078,296.996C271.43,296.691 282.348,295.023 295.34,293.293C308.336,291.559 319.945,289.949 321.141,289.715L323.312,289.285L322.773,298.527C322.477,303.613 322.094,307.996 321.926,308.27C321.758,308.543 318.828,309.191 315.418,309.715C312.008,310.238 308.539,310.91 307.715,311.207C306.07,311.801 306.34,309.531 303.164,349.324C302.047,363.305 301.535,366.941 300.617,367.418C299.984,367.746 296.258,368.578 292.34,369.273C288.422,369.969 284.625,370.707 283.902,370.918C282.918,371.207 282.594,370.871 282.602,369.566ZM332.977,361.754C330.176,360.359 328.535,358.898 327.191,356.602C323.754,350.734 323.758,346.754 327.277,305C328.512,290.336 328.68,289.398 330.152,289.094C334.652,288.16 347.23,286.34 347.477,286.59C347.637,286.746 346.777,297.496 345.57,310.477C344.363,323.457 343.367,335.773 343.359,337.848C343.336,342.812 344.828,344.953 348.309,344.953C354.848,344.953 356.309,341.699 357.922,323.578C358.582,316.152 359.609,304.551 360.203,297.793C360.801,291.035 361.496,285.297 361.75,285.043C362.258,284.531 379.547,282.023 379.992,282.395C380.141,282.523 379.883,286.949 379.418,292.227C378.949,297.508 377.902,309.758 377.082,319.453C376.266,329.145 375.207,338.766 374.73,340.828C371.281,355.742 360.383,363.703 343.41,363.703C337.891,363.703 336.285,363.402 332.977,361.754ZM381.086,353.016C382.391,337.789 383.93,319.332 385.383,301.453C386.27,290.52 387.047,281.531 387.105,281.473C387.5,281.086 409.98,277.938 414.414,277.648C419.234,277.328 420.344,277.523 424.016,279.32C429.117,281.816 431.578,285.277 432.676,291.508C434.348,301.016 430.988,311.953 424.238,318.957L420.602,322.727L426.559,334.152C432.512,345.578 432.516,345.582 430.863,346.641C428.18,348.371 416.355,354.703 415.812,354.703C415.539,354.703 412.387,348.797 408.805,341.574C405.227,334.355 402.059,328.699 401.766,329.012C401.473,329.324 400.688,335.465 400.02,342.66C399.352,349.852 398.727,355.781 398.633,355.836C398.348,355.992 382.008,358.469 381.293,358.461C380.914,358.457 380.824,356.066 381.086,353.016ZM408.648,311.172C413.883,308.5 416.25,301.906 413.422,297.871C412.484,296.527 411.531,296.203 408.531,296.203C404.023,296.203 403.777,296.645 402.996,306.141C402.473,312.504 402.504,312.703 404.055,312.703C404.934,312.703 407,312.016 408.648,311.172ZM434.84,349.863C434.84,349.266 435.344,342.938 435.961,335.801C436.578,328.668 437.934,312.051 438.973,298.879C440.012,285.707 441.004,274.789 441.176,274.617C441.75,274.043 479.766,268.129 480.188,268.547C480.41,268.773 480.172,272.789 479.656,277.469L478.715,285.984L457.715,289.828L457.34,295.266C456.906,301.57 456.211,301.223 465.863,299.535C469.52,298.895 472.66,298.523 472.848,298.707C473.227,299.09 471.641,314.402 471.172,314.871C471.008,315.035 467.598,315.793 463.594,316.551C459.59,317.309 456.078,318.188 455.793,318.504C455.504,318.82 455.105,321.523 454.906,324.516C454.473,330.98 453.508,330.672 466.871,328.336C471.953,327.449 476.289,326.902 476.508,327.121C476.727,327.34 476.496,331.305 475.992,335.938C475.195,343.281 474.883,344.438 473.523,345C471.965,345.648 438.625,350.961 436.152,350.957C435.43,350.953 434.84,350.465 434.84,349.863ZM143.926,297.316C124.465,291.848 114.062,273.082 116.91,248.578C118.668,233.438 125.301,219.59 135.965,208.781C141.707,202.961 143.781,201.414 149.84,198.434C160.207,193.336 167.57,191.684 177.918,192.137C183.879,192.395 187.683,192.992 191.422,194.25C197.348,196.25 203.578,200.172 203.234,201.691C203.109,202.254 205.191,200.793 207.859,198.449C214.262,192.828 221.238,188.66 228.391,186.184C233.113,184.547 235.922,184.109 243.242,183.863C251.461,183.586 252.793,183.734 258.141,185.527C264.867,187.785 269.324,190.613 273.074,194.992L275.691,198.051L276.137,195.188C276.379,193.613 276.938,189.301 277.379,185.598C277.816,181.898 278.289,178.754 278.426,178.617C278.844,178.199 317.309,173.922 317.641,174.254C317.812,174.422 318.746,178 319.715,182.203C320.688,186.406 321.668,190.027 321.895,190.254C322.383,190.746 322.383,190.746 325.559,180.703L328.047,172.828L333.629,172.25C336.703,171.934 344.785,171.008 351.59,170.188C358.398,169.371 364.555,168.703 365.277,168.703C366.387,168.703 366.594,169.43 366.602,173.391C366.621,180.309 367.77,181.102 368.371,174.609C368.648,171.613 369.016,169.027 369.188,168.855C369.539,168.504 393.816,165.703 404.84,164.742L406.715,164.578L406.445,172.297L406.172,180.02L409.688,176.797C417.281,169.84 424.891,165.898 434.84,163.77C447.602,161.043 461.926,164.543 471.082,172.625L473.863,175.078L469.539,188.145L465.215,201.215L456.215,204.812C451.266,206.793 447.016,208.422 446.766,208.434C446.52,208.445 445.789,207.102 445.141,205.453C443.656,201.672 441.289,201.449 437.543,204.734C432.805,208.898 430.258,216.816 431.805,222.574C432.691,225.867 434.23,226.82 437.375,226.035C439.199,225.574 444.281,220.711 445.836,217.934C446.512,216.727 447.245,216.859 455.457,219.668C460.348,221.34 464.512,222.871 464.707,223.07C465.199,223.562 466.875,249.031 466.516,250.527C466.055,252.434 454.273,259.828 447.445,262.5C442.133,264.578 440,264.984 432.945,265.281C428.059,265.488 422.93,265.266 420.406,264.742C414.391,263.492 407.762,259.973 404.25,256.164L401.254,252.914L400.805,255.621C400.559,257.109 400.348,259.848 400.336,261.703C400.328,263.559 400.07,265.445 399.766,265.895C399.465,266.344 391.285,267.805 381.59,269.145C371.898,270.48 357.039,272.559 348.57,273.762C340.102,274.969 332.781,275.953 332.301,275.953C331.809,275.953 331.32,274.555 331.188,272.766L330.945,269.578L329.93,272.672C328.969,275.59 328.711,275.789 325.438,276.211C323.527,276.453 318.613,277.172 314.512,277.805C306.215,279.09 306.25,279.102 305.438,274.285C304.719,270.02 303.82,270.242 303.25,274.824C302.965,277.082 302.336,279.176 301.852,279.48C300.832,280.113 264.375,285.633 263.902,285.227C263.734,285.078 263.941,282.676 264.367,279.891C264.793,277.105 265.027,274.695 264.887,274.535C264.746,274.375 263.344,275.406 261.77,276.828C251.348,286.242 238.711,291.242 225.59,291.141C213.398,291.043 206.133,288.441 198.598,281.465L194.172,277.367L193.945,281.262L193.715,285.16L187.254,289.055C183.703,291.195 177.457,294.062 173.379,295.426C166.992,297.562 164.719,297.945 156.965,298.18C150.496,298.375 146.828,298.133 143.926,297.316ZM168.559,287.859C173.617,286.516 181.965,282.676 185.238,280.188C186.246,279.422 186.664,277.188 187.234,269.523C187.629,264.191 187.789,259.66 187.586,259.453C187.387,259.246 184.972,258.523 182.219,257.848L177.215,256.617L174.543,259.508C167.367,267.27 154.871,267.5 150.77,259.941C149,256.68 149.031,246.895 150.832,241.688C155.043,229.52 165.852,220.969 173.957,223.398C175.5,223.859 177.418,225.074 178.223,226.098C179.023,227.117 180.008,227.953 180.406,227.953C180.809,227.953 183.344,226.949 186.043,225.727L190.953,223.5L192.898,215.211C193.965,210.652 194.84,206.301 194.84,205.539C194.84,204.578 193.652,203.66 190.953,202.535C177.816,197.078 161.016,199.488 148.141,208.676C142.418,212.758 138.789,216.672 134.535,223.332C128.004,233.562 124.953,244.035 124.992,256.078C125.043,271.355 130.156,281.434 140.414,286.484C148.516,290.473 157.156,290.895 168.559,287.859ZM234.215,281.578C254.176,277.402 269.082,260.156 273.215,236.457C278.219,207.777 265.324,189.316 241.812,191.5C221.855,193.355 205.645,207.195 198.68,228.328C193.371,244.426 194.215,260.195 200.953,270.832C207.039,280.438 219.863,284.582 234.215,281.578ZM224.84,257.824C223.398,256.859 221.43,254.551 220.469,252.695C218.93,249.723 218.766,248.582 219.086,242.953C219.535,235.059 221.273,229.656 225.238,223.828C232.641,212.945 245.523,211.105 250.07,220.277C253.453,227.102 251.004,242.273 245.172,250.625C239.809,258.301 230.477,261.605 224.84,257.824ZM236.961,248.457C238.055,247.41 239.895,244.48 241.051,241.941C242.797,238.098 243.152,236.277 243.18,231.043C243.207,226.086 242.965,224.602 242.02,223.996C238.941,222.031 233.449,225.914 230.355,232.238C228.719,235.586 228.227,237.805 227.98,242.977C227.688,249.055 227.781,249.574 229.344,250.672C231.367,252.09 233.934,251.344 236.961,248.457ZM286.34,273.277C291.086,272.617 295.223,271.836 295.535,271.539C295.844,271.238 297.551,261.402 299.324,249.68L302.551,228.367L303.785,232.848C304.461,235.312 306.562,244.398 308.453,253.039C310.34,261.68 311.965,268.828 312.062,268.926C312.16,269.023 314.84,268.738 318.016,268.289L323.793,267.48L325.27,262.902C326.082,260.387 329,250.902 331.754,241.828C334.508,232.754 337.016,224.863 337.324,224.293C337.629,223.727 338.043,232.758 338.242,244.359C338.438,255.965 338.789,265.652 339.023,265.887C339.504,266.363 360.336,263.449 361.477,262.742C361.918,262.473 362.043,259.844 361.789,256.184C361.559,252.824 361.012,237.422 360.578,221.953C360.145,206.484 359.605,190.109 359.375,185.562L358.965,177.293L333.691,180.215L328.344,196.77C322.527,214.773 320.75,219.859 320.395,219.508C320.09,219.199 314.406,194.34 313.277,188.371C312.789,185.785 312.098,183.488 311.742,183.266C311.133,182.891 292.055,184.785 287.676,185.656C285.27,186.137 285.836,183.422 281.805,213.703C280.133,226.285 277.598,244.629 276.176,254.469C274.754,264.312 273.59,272.992 273.59,273.766C273.59,274.875 274.016,275.094 275.652,274.816C276.789,274.625 281.598,273.934 286.34,273.277ZM383.09,260.324L392.465,259.012L393.012,252.668C393.562,246.223 394.867,227.035 397.074,192.867C397.746,182.441 398.133,173.746 397.934,173.547C397.395,173.008 376.828,175.527 376.07,176.227C375.715,176.555 374.965,183.012 374.402,190.574C373.438,203.559 369.598,259.93 369.594,261.141C369.59,261.973 372.656,261.789 383.09,260.324ZM166.379,256.34C167.957,255.453 170.301,253.262 171.59,251.465C174.172,247.871 174.906,247.688 180.285,249.32C182.309,249.934 184.726,250.441 185.652,250.445C187.211,250.453 187.34,250.117 187.34,246.055C187.34,243.637 187.68,239.871 188.094,237.684C188.508,235.5 188.691,233.551 188.5,233.359C188.23,233.094 181.031,235.785 175.316,238.285C175.055,238.402 174.441,237.156 173.949,235.52C172.898,232.004 171.062,231.16 167.969,232.762C162.668,235.504 158.109,243.82 158.098,250.77C158.086,257.789 160.688,259.539 166.379,256.34ZM438.742,256.387C443.223,255.465 453.637,250.66 456.812,248.051L458.91,246.328L458.312,237.398L457.715,228.465L453.684,227.098L449.656,225.73L445.973,229.043C441.645,232.934 438.152,234.27 433.637,233.758C426.742,232.98 423.469,228.121 423.512,218.727C423.551,210.102 426.473,203.164 432.176,198.145C435.887,194.879 441.129,192.984 444.281,193.777C445.383,194.055 447.301,195.297 448.543,196.539L450.805,198.801L455.008,196.984L459.211,195.172L461.664,187.375C463.012,183.086 464.297,179 464.52,178.297C464.82,177.344 463.965,176.535 461.145,175.105C441.309,165.055 417.328,173.586 407.172,194.305C402.406,204.027 401.465,208.523 401.465,221.578C401.465,234.391 402.668,239.371 407.492,246.535C413.449,255.379 425.367,259.137 438.742,256.387ZM87.984,196.594C87.766,196.379 87.59,171.496 87.59,141.301L87.59,86.402L107.652,85.992C133,85.473 151.621,83.316 174.59,78.238C212.129,69.938 251.043,53.684 282.105,33.332L284.238,31.934L283.684,82.504C283.379,110.32 282.914,137.973 282.648,143.953L282.168,154.828L280.539,149.578C279.645,146.691 276.566,135.109 273.699,123.844C270.832,112.578 268.332,103.633 268.145,103.969C267.957,104.305 267.738,106.941 267.656,109.828C267.578,112.715 267.195,120.645 266.812,127.453C266.426,134.258 266.105,142.781 266.102,146.391C266.094,150 265.773,152.953 265.387,152.953C265,152.953 259.207,149.578 252.516,145.453C245.824,141.328 240.152,137.965 239.91,137.984C239.664,138 237.727,141.637 235.602,146.062C231.266,155.09 226.914,161.262 220.176,167.938C217.66,170.43 215.742,172.59 215.91,172.738C216.078,172.891 220.434,172.066 225.59,170.91C230.746,169.75 238.426,168.379 242.652,167.863C247.023,167.328 250.328,166.578 250.316,166.125C250.301,165.688 249.297,162.816 248.086,159.742C246.875,156.672 246.02,154.023 246.184,153.859C246.352,153.695 250.312,156.766 254.988,160.684L263.488,167.809L263.207,171.359L262.922,174.914L256.066,174.43C247.484,173.828 239.391,174.824 226.805,178.035C217.66,180.367 204.668,182.477 187.265,184.457L180.07,185.277L161.766,175.793C113.527,150.801 116.793,152.383 120.953,156.039C123.008,157.848 129.766,163.883 135.973,169.453C142.18,175.02 148.926,180.996 150.961,182.73C152.996,184.461 154.496,186.047 154.293,186.25C153.824,186.719 136.965,189.551 111.59,193.426C100.66,195.094 90.965,196.578 90.047,196.723C89.129,196.871 88.199,196.812 87.984,196.594ZM199.66,164.168C202.879,163.328 207.449,161.66 209.816,160.465L214.117,158.293L214.605,153.637C214.871,151.078 215.09,147.172 215.09,144.961L215.09,140.938L209.086,143.957C196.496,150.285 186.023,150.914 179.836,145.711C176.129,142.59 175.035,139.773 175.055,133.43C175.07,128.629 175.449,126.961 177.586,122.328C182.23,112.25 192.473,105.098 201.094,105.906C206.098,106.375 208.422,108.762 208.922,113.941L209.293,117.816L213.129,117.297C215.238,117.012 217.473,116.516 218.094,116.191C218.711,115.863 221.043,110.629 223.273,104.555L227.324,93.512L225.52,92.145C220.789,88.559 207.777,85.758 199.715,86.59C188.812,87.719 176.973,92.352 169.16,98.551C161.227,104.84 154.203,115.566 151.707,125.203C149.828,132.441 150.402,142.969 152.973,148.543C156.621,156.445 163.555,161.93 173.176,164.516C179.41,166.195 192.594,166.02 199.66,164.168ZM390.965,457.395C392.617,456.957 396.582,455.387 399.777,453.906L405.59,451.215L405.59,445.395C405.59,442.195 405.758,439.125 405.957,438.578C406.16,438.027 406.043,437.137 405.699,436.594C405.211,435.832 404.07,436.211 400.645,438.281C394.41,442.039 389.754,443.445 384.855,443.039C377.562,442.434 373.652,437.801 373.82,429.961C374.098,416.763 387.316,405.031 396.539,409.801C398.836,410.988 399.59,412.312 399.59,415.141C399.59,417.074 400.602,417.285 405.168,416.302C407.27,415.849 407.477,415.422 409.801,406.828C411.141,401.879 412.008,397.598 411.727,397.32C410.117,395.715 402.262,393.496 396.965,393.156C389.41,392.664 383.832,393.809 376.949,397.25C366.809,402.324 359.016,412.152 356.035,423.638C354.199,430.707 354.207,435.809 356.07,441.812C358.453,449.504 363.582,454.527 371.559,456.977C375.867,458.297 386.695,458.531 390.965,457.395ZM502.43,230.578C503.238,208.434 503.926,90.012 503.309,79.828L502.715,70.078L495.965,70.453C483.805,71.129 451.887,70.742 443.84,69.824C439.508,69.328 431.312,68.211 425.625,67.34C419.938,66.469 415.184,65.887 415.059,66.043C414.148,67.176 408.59,77.922 408.59,78.547C408.59,79.438 413.117,80.504 423.516,82.066C441.453,84.758 451.516,85.613 469.527,85.992L488.84,86.395L488.758,130.359C488.711,154.543 488.445,189.684 488.168,208.453C487.891,227.223 487.785,242.844 487.938,243.168C488.09,243.492 491.309,243.66 495.09,243.543L501.965,243.328L502.43,230.578Z" style="fill-rule:nonzero;"/>
    </g>
</svg>
